<svg width="33" height="35" viewBox="0 0 33 35" fill="none" xmlns="http://www.w3.org/2000/svg">
<path d="M32.696 31.072C30.872 33.184 28.408 34.24 25.304 34.24C23.256 34.24 21.384 33.808 19.688 32.944C17.992 32.08 16.104 30.56 14.024 28.384C11.496 28.096 9.24 27.312 7.256 26.032C5.272 24.752 3.72 23.088 2.6 21.04C1.48 18.992 0.92 16.736 0.92 14.272C0.92 11.584 1.576 9.168 2.888 7.024C4.2 4.848 6.008 3.152 8.312 1.936C10.616 0.719998 13.192 0.111999 16.04 0.111999C18.92 0.111999 21.512 0.719998 23.816 1.936C26.12 3.152 27.928 4.848 29.24 7.024C30.552 9.168 31.208 11.584 31.208 14.272C31.208 17.472 30.296 20.272 28.472 22.672C26.648 25.072 24.216 26.752 21.176 27.712C21.88 28.448 22.568 28.96 23.24 29.248C23.912 29.568 24.648 29.728 25.448 29.728C26.248 29.728 27.032 29.552 27.8 29.2C28.568 28.848 29.256 28.352 29.864 27.712L32.696 31.072ZM7.016 14.272C7.016 16 7.4 17.552 8.168 18.928C8.968 20.304 10.056 21.392 11.432 22.192C12.808 22.96 14.344 23.344 16.04 23.344C17.768 23.344 19.32 22.96 20.696 22.192C22.072 21.392 23.144 20.304 23.912 18.928C24.68 17.552 25.064 16 25.064 14.272C25.064 12.544 24.68 10.992 23.912 9.616C23.144 8.24 22.072 7.168 20.696 6.4C19.32 5.632 17.768 5.248 16.04 5.248C14.344 5.248 12.808 5.648 11.432 6.448C10.056 7.216 8.968 8.288 8.168 9.664C7.4 11.008 7.016 12.544 7.016 14.272Z" fill="#0AC3CF"/>
</svg>
